<?xml version="1.0" standalone="no"?>
<!DOCTYPE svg PUBLIC "-//W3C//DTD SVG 20010904//EN"
 "http://www.w3.org/TR/2001/REC-SVG-20010904/DTD/svg10.dtd">
<svg version="1.0" xmlns="http://www.w3.org/2000/svg"
 width="820.000000pt" height="481.000000pt" viewBox="0 0 820.000000 481.000000"
 preserveAspectRatio="xMidYMid meet">
<metadata>
Created by potrace 1.16, written by Peter Selinger 2001-2019
</metadata>
<g transform="translate(0.000000,481.000000) scale(0.100000,-0.100000)"
fill="#000000" stroke="none">
<path d="M3943 4365 c-290 -75 -637 -203 -964 -355 -164 -77 -444 -222 -541
-282 l-48 -30 0 -161 c1 -741 160 -1513 425 -2052 264 -539 625 -876 1108
-1037 159 -53 195 -53 354 0 528 176 916 568 1183 1197 60 141 152 424 194
595 92 381 142 770 153 1206 l6 250 -49 31 c-186 114 -588 311 -860 421 -270
110 -730 253 -807 252 -12 -1 -81 -16 -154 -35z m323 -254 c340 -97 630 -212
1023 -408 l274 -136 -6 -196 c-19 -612 -137 -1203 -327 -1647 -195 -454 -466
-773 -813 -954 -83 -44 -218 -96 -289 -114 l-28 -6 0 1750 c0 1470 2 1750 14
1750 7 0 76 -18 152 -39z"/>
</g>
</svg>
