<?xml version="1.0" standalone="no"?>
<!DOCTYPE svg PUBLIC "-//W3C//DTD SVG 20010904//EN"
 "http://www.w3.org/TR/2001/REC-SVG-20010904/DTD/svg10.dtd">
<svg version="1.0" xmlns="http://www.w3.org/2000/svg"
 width="120.000000pt" height="128.000000pt" viewBox="0 0 120.000000 128.000000"
 preserveAspectRatio="xMidYMid meet">
<metadata>
Created by potrace 1.16, written by Peter Selinger 2001-2019
</metadata>
<g transform="translate(0.000000,128.000000) scale(0.100000,-0.100000)"
fill="#000000" stroke="none">
<path d="M495 1263 c-61 -32 -107 -89 -120 -150 l-7 -33 232 0 232 0 -6 25
c-18 73 -58 125 -117 155 -49 25 -169 27 -214 3z"/>
<path d="M112 1198 c-25 -25 -12 -70 50 -174 57 -94 66 -104 92 -104 l29 0
-27 -32 c-46 -58 -85 -132 -97 -185 l-12 -53 -57 0 c-73 0 -92 -14 -88 -65 l3
-40 67 -3 c65 -3 68 -4 74 -30 15 -72 38 -132 70 -180 24 -36 30 -52 20 -52
-8 0 -42 -45 -75 -100 -79 -131 -80 -180 -5 -180 29 0 36 7 81 83 l49 82 50 3
c33 2 68 -4 100 -16 27 -11 68 -23 92 -27 l42 -7 0 456 0 456 -139 0 -139 0
-42 73 c-24 39 -50 80 -58 90 -17 20 -62 23 -80 5z"/>
<path d="M1012 1183 c-15 -16 -44 -57 -65 -91 l-37 -62 -140 0 -140 0 0 -456
0 -456 43 7 c23 4 65 16 92 26 28 11 73 19 100 19 l50 0 49 -80 c34 -57 56
-82 74 -87 31 -7 54 6 66 39 8 22 -1 41 -55 131 -40 66 -70 106 -81 107 -14 0
-11 9 16 48 29 43 54 109 70 184 6 26 9 27 74 30 l67 3 3 40 c4 51 -15 65 -89
65 l-57 0 -7 38 c-9 53 -46 129 -88 185 l-37 47 29 0 c27 0 36 10 95 107 69
111 74 128 54 155 -25 31 -56 32 -86 1z"/>
</g>
</svg>
