<?xml version="1.0" standalone="no"?>
<!DOCTYPE svg PUBLIC "-//W3C//DTD SVG 20010904//EN"
 "http://www.w3.org/TR/2001/REC-SVG-20010904/DTD/svg10.dtd">
<svg version="1.0" xmlns="http://www.w3.org/2000/svg"
 width="200.000000pt" height="200.000000pt" viewBox="0 0 200.000000 200.000000"
 preserveAspectRatio="xMidYMid meet">
<metadata>
Created by potrace 1.16, written by Peter Selinger 2001-2019
</metadata>
<g transform="translate(0.000000,200.000000) scale(0.100000,-0.100000)"
fill="#000000" stroke="none">
<path d="M0 1000 l0 -850 1000 0 1000 0 0 850 0 850 -1000 0 -1000 0 0 -850z
m1840 -80 l0 -610 -840 0 -840 0 0 610 0 610 840 0 840 0 0 -610z"/>
<path d="M307 1298 c6 -7 58 -77 117 -155 l107 -143 -107 -142 c-59 -79 -111
-149 -117 -155 -7 -10 17 -13 114 -13 l124 0 113 150 c61 82 112 154 112 160
0 6 -51 78 -112 160 l-113 150 -124 0 c-97 0 -121 -3 -114 -12z"/>
</g>
</svg>
