<?xml version="1.0" standalone="no"?>
<!DOCTYPE svg PUBLIC "-//W3C//DTD SVG 20010904//EN"
 "http://www.w3.org/TR/2001/REC-SVG-20010904/DTD/svg10.dtd">
<svg version="1.0" xmlns="http://www.w3.org/2000/svg"
 width="222.000000pt" height="227.000000pt" viewBox="0 0 222.000000 227.000000"
 preserveAspectRatio="xMidYMid meet">
<metadata>
Created by potrace 1.16, written by Peter Selinger 2001-2019
</metadata>
<g transform="translate(0.000000,227.000000) scale(0.100000,-0.100000)"
fill="#000000" stroke="none">
<path d="M1060 2256 c-113 -30 -193 -90 -281 -208 -107 -144 -287 -538 -275
-602 6 -31 109 -166 127 -166 25 0 0 -22 -88 -81 -175 -114 -175 -115 -277
-374 -73 -188 -90 -248 -82 -301 7 -55 46 -133 91 -183 19 -21 35 -41 35 -45
0 -3 -63 -6 -139 -6 -114 0 -143 -3 -155 -16 -21 -21 -20 -30 6 -48 18 -13 55
-16 196 -16 l173 0 24 -27 c20 -23 24 -39 25 -89 0 -33 5 -65 12 -72 17 -17
1309 -17 1326 0 7 7 12 38 12 70 0 45 5 66 22 88 l22 30 169 0 c172 0 207 6
207 38 0 37 -20 42 -157 42 -73 0 -133 3 -133 6 0 3 16 24 35 47 90 104 108
212 60 343 -48 128 -116 299 -133 334 -29 58 -59 86 -170 161 -59 39 -111 75
-116 80 -5 4 12 30 39 58 98 102 104 133 51 263 -87 216 -170 376 -251 483
-82 107 -141 151 -250 184 -77 24 -66 23 -125 7z m112 -80 c67 -20 131 -68
192 -144 47 -59 136 -203 136 -220 0 -3 -81 74 -180 173 -141 140 -183 176
-192 167 -10 -10 35 -60 209 -235 166 -167 226 -233 239 -265 9 -24 14 -46 10
-49 -3 -4 -104 91 -224 210 -120 119 -223 217 -230 217 -29 0 -1 -33 168 -201
99 -98 180 -181 180 -184 0 -3 -17 -3 -37 1 -31 5 -61 29 -168 135 -72 71
-136 129 -143 129 -28 0 -6 -31 93 -130 58 -58 105 -108 105 -112 0 -4 -17 -4
-37 -1 -28 4 -52 19 -93 59 -31 30 -61 54 -68 54 -22 0 -13 -23 24 -61 l35
-36 -133 -6 c-146 -7 -283 -28 -366 -57 l-54 -19 6 27 c9 40 129 279 171 342
74 110 155 180 238 206 55 17 65 17 119 0z m225 -631 l22 -15 -19 -68 c-11
-37 -32 -98 -47 -135 -24 -62 -32 -72 -77 -98 -28 -16 -75 -36 -104 -45 -65
-19 -128 -8 -211 39 -46 26 -57 38 -81 93 -16 34 -38 97 -50 140 -20 74 -20
79 -4 91 28 20 542 18 571 -2z m335 -805 c-2 -140 -6 -316 -10 -390 l-7 -135
-602 -3 -603 -2 -1 57 c0 32 -6 202 -13 378 -7 184 -9 327 -4 338 8 16 46 17
626 15 l617 -3 -3 -255z m-22 -625 l0 -25 -600 0 -600 0 0 25 0 25 600 0 600
0 0 -25z"/>
</g>
</svg>
